<?xml version="1.0" encoding="iso-8859-1"?>
<!-- Generator: Adobe Illustrator 19.0.0, SVG Export Plug-In . SVG Version: 6.00 Build 0)  -->
<svg version="1.1" id="Layer_1" xmlns="http://www.w3.org/2000/svg" xmlns:xlink="http://www.w3.org/1999/xlink" x="0px" y="0px"
	 viewBox="0 0 512 512" style="enable-background:new 0 0 512 512;" xml:space="preserve">
<g>
	<g>
		<path d="M106.667,0C46.848,0,0,32.811,0,74.667c0,41.856,46.848,74.667,106.667,74.667s106.667-32.811,106.667-74.667
			C213.333,32.811,166.485,0,106.667,0z M106.667,85.333c-12.843,0-21.333-6.421-21.333-10.667c0-4.245,8.491-10.667,21.333-10.667
			C119.509,64,128,70.421,128,74.667C128,78.912,119.509,85.333,106.667,85.333z"/>
	</g>
</g>
<g>
	<g>
		<path d="M207.509,142.656c-3.605-1.792-7.893-1.451-11.115,0.896c-23.915,17.493-55.765,27.115-89.728,27.115
			c-33.963,0-65.813-9.621-89.707-27.115c-3.2-2.368-7.531-2.688-11.115-0.896C2.24,144.469,0,148.139,0,152.171v285.163
			C0,479.189,46.848,512,106.667,512s106.667-32.811,106.667-74.667V152.171C213.333,148.139,211.093,144.469,207.509,142.656z"/>
	</g>
</g>
<g>
	<g>
		<path d="M501.333,0h-283.2c-4.267,0-8.149,2.56-9.813,6.485c-1.685,3.947-0.832,8.491,2.133,11.584
			c15.829,16.448,24.213,36.011,24.213,56.597v362.667c0,5.888,4.779,10.667,10.667,10.667H416c1.387,0,2.773-0.277,4.075-0.811
			c1.323-0.533,2.496-1.323,3.477-2.325l85.312-85.312c0.981-0.981,1.771-2.176,2.325-3.477c0.533-1.301,0.811-2.688,0.811-4.075
			V10.667C512,4.779,507.221,0,501.333,0z M426.667,411.584v-48.917h48.917L426.667,411.584z"/>
	</g>
</g>
<g>
</g>
<g>
</g>
<g>
</g>
<g>
</g>
<g>
</g>
<g>
</g>
<g>
</g>
<g>
</g>
<g>
</g>
<g>
</g>
<g>
</g>
<g>
</g>
<g>
</g>
<g>
</g>
<g>
</g>
</svg>
